# xmcd
# 
# Track frame offsets:
#     150
#     49447
#     79630
#     105035
#     135270
# 
# Disc length: 2092
# 
# Revision: 1
# Processed by: cddbd v1.5.2PL0 Copyright (c) Steve Scherf et al.
# Submitted via: BonkEnc v1.0.8
# 
DISCID=2f082a05
DTITLE=Johnny "Hammond" Smith - Breakout
DYEAR=1971
DGENRE=Jazz
TTITLE0=It's Too Late
TTITLE1=Workin' On A Groovy Thing
TTITLE2=Never Can Say Goodbye
TTITLE3=Blues Selah
TTITLE4=Breakout
EXTD=YEAR: 1971
EXTT0=
EXTT1=
EXTT2=
EXTT3=
EXTT4=
PLAYORDER=
